<?xml version="1.0" encoding="UTF-8"?>
<svg width="369px" height="110px" viewBox="0 0 369 110" version="1.1" xmlns="http://www.w3.org/2000/svg" xmlns:xlink="http://www.w3.org/1999/xlink">
    <!-- Generator: Sketch 49.2 (51160) - http://www.bohemiancoding.com/sketch -->
    <title>Logo / aw_logo_and_strapline</title>
    <desc>Created with Sketch.</desc>
    <defs>
        <filter x="-6.8%" y="-6.8%" width="113.6%" height="113.6%" filterUnits="objectBoundingBox" id="filter-1">
            <feOffset dx="0" dy="0" in="SourceAlpha" result="shadowOffsetOuter1"></feOffset>
            <feGaussianBlur stdDeviation="2.5" in="shadowOffsetOuter1" result="shadowBlurOuter1"></feGaussianBlur>
            <feColorMatrix values="0 0 0 0 0.157751803   0 0 0 0 0.17001374   0 0 0 0 0.183992347  0 0 0 0.264775815 0" type="matrix" in="shadowBlurOuter1" result="shadowMatrixOuter1"></feColorMatrix>
            <feMerge>
                <feMergeNode in="shadowMatrixOuter1"></feMergeNode>
                <feMergeNode in="SourceGraphic"></feMergeNode>
            </feMerge>
        </filter>
        <circle id="path-2" cx="55" cy="55" r="55"></circle>
        <filter x="-2.7%" y="-13.6%" width="105.5%" height="127.3%" filterUnits="objectBoundingBox" id="filter-4">
            <feOffset dx="0" dy="0" in="SourceAlpha" result="shadowOffsetOuter1"></feOffset>
            <feGaussianBlur stdDeviation="1" in="shadowOffsetOuter1" result="shadowBlurOuter1"></feGaussianBlur>
            <feColorMatrix values="0 0 0 0 0   0 0 0 0 0   0 0 0 0 0  0 0 0 0.264407835 0" type="matrix" in="shadowBlurOuter1" result="shadowMatrixOuter1"></feColorMatrix>
            <feMerge>
                <feMergeNode in="shadowMatrixOuter1"></feMergeNode>
                <feMergeNode in="SourceGraphic"></feMergeNode>
            </feMerge>
        </filter>
    </defs>
    <g id="Logo-/-aw_logo_and_strapline" stroke="none" stroke-width="1" fill="none" fill-rule="evenodd">
        <g id="aw_logo_and_strapline">
            <g id="lockup" transform="translate(135.000000, 4.000000)" fill="#6C7A89">
                <path d="M7.75585938,97.7119141 L2,97.7119141 L2,87.7177734 L7.75585938,87.7177734 L7.75585938,89.4541016 L4.11914062,89.4541016 L4.11914062,91.6484375 L7.50292969,91.6484375 L7.50292969,93.3847656 L4.11914062,93.3847656 L4.11914062,95.9619141 L7.75585938,95.9619141 L7.75585938,97.7119141 Z M18.0302734,97.7119141 L15.9179688,97.7119141 L15.9179688,93.3984375 L11.9599609,93.3984375 L11.9599609,97.7119141 L9.84082031,97.7119141 L9.84082031,87.7177734 L11.9599609,87.7177734 L11.9599609,91.6347656 L15.9179688,91.6347656 L15.9179688,87.7177734 L18.0302734,87.7177734 L18.0302734,97.7119141 Z M26.4521484,94.9365234 C26.4521484,95.8388717 26.1274447,96.5498021 25.4780273,97.0693359 C24.82861,97.5888698 23.925136,97.8486328 22.7675781,97.8486328 C21.7011665,97.8486328 20.7578166,97.648114 19.9375,97.2470703 L19.9375,95.2783203 C20.6119825,95.5791031 21.1827776,95.791015 21.6499023,95.9140625 C22.1170271,96.03711 22.5442689,96.0986328 22.9316406,96.0986328 C23.3964867,96.0986328 23.7530912,96.0097665 24.0014648,95.8320312 C24.2498385,95.654296 24.3740234,95.3899757 24.3740234,95.0390625 C24.3740234,94.843098 24.3193365,94.6687833 24.2099609,94.5161133 C24.1005854,94.3634432 23.9399425,94.2164721 23.7280273,94.0751953 C23.5161122,93.9339186 23.0843132,93.7083349 22.4326172,93.3984375 C21.8219371,93.1113267 21.3639338,92.8356133 21.0585938,92.5712891 C20.7532537,92.3069648 20.509441,91.9993507 20.3271484,91.6484375 C20.1448559,91.2975243 20.0537109,90.8873721 20.0537109,90.4179688 C20.0537109,89.5338497 20.3533499,88.8388697 20.9526367,88.3330078 C21.5519236,87.8271459 22.380203,87.5742188 23.4375,87.5742188 C23.9570338,87.5742188 24.4526344,87.6357416 24.9243164,87.7587891 C25.3959985,87.8818366 25.8893203,88.0550119 26.4042969,88.2783203 L25.7207031,89.9257812 C25.1874973,89.7070302 24.7465838,89.5543624 24.3979492,89.4677734 C24.0493147,89.3811845 23.7063819,89.3378906 23.3691406,89.3378906 C22.968097,89.3378906 22.6604828,89.4313142 22.4462891,89.6181641 C22.2320953,89.805014 22.125,90.0488266 22.125,90.3496094 C22.125,90.5364593 22.1682938,90.6993808 22.2548828,90.8383789 C22.3414718,90.977377 22.4793285,91.1118158 22.668457,91.2416992 C22.8575856,91.3715827 23.305335,91.6051415 24.0117188,91.9423828 C24.9459682,92.3889996 25.5862613,92.8367491 25.9326172,93.2856445 C26.2789731,93.73454 26.4521484,94.2848275 26.4521484,94.9365234 L26.4521484,94.9365234 Z M30.1435547,96.2421875 C29.9065743,97.162765 29.5055367,98.2542255 28.9404297,99.5166016 L27.4365234,99.5166016 C27.7327489,98.3043559 27.9628898,97.1604871 28.1269531,96.0849609 L30.0410156,96.0849609 L30.1435547,96.2421875 Z M38.0800781,92.1542969 L38.7636719,92.1542969 C39.4335971,92.1542969 39.9280583,92.0426443 40.2470703,91.8193359 C40.5660823,91.5960275 40.7255859,91.2451196 40.7255859,90.7666016 C40.7255859,90.2926409 40.5626644,89.9554046 40.2368164,89.7548828 C39.9109684,89.554361 39.4062534,89.4541016 38.7226562,89.4541016 L38.0800781,89.4541016 L38.0800781,92.1542969 Z M38.0800781,93.8769531 L38.0800781,97.7119141 L35.9609375,97.7119141 L35.9609375,87.7177734 L38.8730469,87.7177734 C40.2311266,87.7177734 41.2359993,87.965004 41.8876953,88.4594727 C42.5393913,88.9539413 42.8652344,89.7047476 42.8652344,90.7119141 C42.8652344,91.2998076 42.7034521,91.8227516 42.3798828,92.2807617 C42.0563135,92.7387718 41.5983103,93.097655 41.0058594,93.3574219 C42.5097731,95.6041779 43.4895811,97.0556608 43.9453125,97.7119141 L41.59375,97.7119141 L39.2080078,93.8769531 L38.0800781,93.8769531 Z M44.9501953,88.09375 C44.9501953,87.4147101 45.3284467,87.0751953 46.0849609,87.0751953 C46.8414751,87.0751953 47.2197266,87.4147101 47.2197266,88.09375 C47.2197266,88.4173193 47.1251637,88.6691072 46.9360352,88.8491211 C46.7469066,89.029135 46.463218,89.1191406 46.0849609,89.1191406 C45.3284467,89.1191406 44.9501953,88.7773472 44.9501953,88.09375 L44.9501953,88.09375 Z M47.1240234,97.7119141 L45.0390625,97.7119141 L45.0390625,90.0693359 L47.1240234,90.0693359 L47.1240234,97.7119141 Z M54.6435547,95.4423828 C54.6435547,96.2262409 54.3712592,96.8232401 53.8266602,97.2333984 C53.2820611,97.6435567 52.4674533,97.8486328 51.3828125,97.8486328 C50.8268201,97.8486328 50.3528665,97.8110355 49.9609375,97.7358398 C49.5690085,97.6606442 49.2021501,97.5501309 48.8603516,97.4042969 L48.8603516,95.6816406 C49.2477233,95.8639332 49.6840796,96.0166009 50.1694336,96.1396484 C50.6547876,96.2626959 51.0820294,96.3242188 51.4511719,96.3242188 C52.2076861,96.3242188 52.5859375,96.1054709 52.5859375,95.6679688 C52.5859375,95.5039054 52.5358078,95.370606 52.4355469,95.2680664 C52.335286,95.1655268 52.1621106,95.0493171 51.9160156,94.9194336 C51.6699206,94.7895501 51.3417989,94.6380217 50.9316406,94.4648438 C50.3437471,94.2187488 49.911948,93.9908865 49.6362305,93.78125 C49.3605129,93.5716135 49.1599941,93.3312188 49.034668,93.0600586 C48.9093418,92.7888984 48.8466797,92.4550801 48.8466797,92.0585938 C48.8466797,91.3795539 49.1098606,90.8543313 49.6362305,90.4829102 C50.1626003,90.111489 50.9088493,89.9257812 51.875,89.9257812 C52.7955775,89.9257812 53.6910764,90.1263001 54.5615234,90.5273438 L53.9326172,92.03125 C53.5498028,91.8671867 53.192059,91.7327479 52.859375,91.6279297 C52.526691,91.5231115 52.1871762,91.4707031 51.8408203,91.4707031 C51.2255829,91.4707031 50.9179688,91.6370426 50.9179688,91.9697266 C50.9179688,92.1565765 51.0170889,92.3183587 51.215332,92.4550781 C51.4135752,92.5917976 51.8476529,92.794595 52.5175781,93.0634766 C53.1145863,93.3050142 53.5520819,93.5305979 53.8300781,93.7402344 C54.1080743,93.9498708 54.3131504,94.1914049 54.4453125,94.4648438 C54.5774746,94.7382826 54.6435547,95.0641257 54.6435547,95.4423828 L54.6435547,95.4423828 Z M58.2734375,93.5556641 L59.1826172,92.3935547 L61.3222656,90.0693359 L63.6738281,90.0693359 L60.6386719,93.3847656 L63.8583984,97.7119141 L61.4521484,97.7119141 L59.2509766,94.6152344 L58.3554688,95.3330078 L58.3554688,97.7119141 L56.2705078,97.7119141 L56.2705078,87.0751953 L58.3554688,87.0751953 L58.3554688,91.8193359 L58.2460938,93.5556641 L58.2734375,93.5556641 Z M77.9951172,97.7119141 L75.4179688,97.7119141 L74.6318359,96.9394531 C73.7613889,97.5455759 72.7770237,97.8486328 71.6787109,97.8486328 C70.5667262,97.8486328 69.6848991,97.593427 69.0332031,97.0830078 C68.3815072,96.5725886 68.0556641,95.8821658 68.0556641,95.0117188 C68.0556641,94.3873667 68.1935208,93.8553082 68.4692383,93.4155273 C68.7449558,92.9757465 69.2177701,92.564455 69.8876953,92.1816406 C69.5458967,91.7897116 69.2975268,91.4148781 69.1425781,91.0571289 C68.9876294,90.6993797 68.9101562,90.3085959 68.9101562,89.8847656 C68.9101562,89.1920538 69.1756158,88.6337912 69.706543,88.2099609 C70.2374701,87.7861307 70.9472612,87.5742188 71.8359375,87.5742188 C72.683598,87.5742188 73.3614883,87.7713196 73.8696289,88.1655273 C74.3777695,88.559735 74.6318359,89.0872363 74.6318359,89.7480469 C74.6318359,90.2903673 74.4746109,90.7859678 74.1601562,91.2348633 C73.8457016,91.6837588 73.3375686,92.1110006 72.6357422,92.5166016 L74.5771484,94.4101562 C74.9007178,93.8769505 75.1809884,93.1910849 75.4179688,92.3525391 L77.5917969,92.3525391 C77.4277336,92.9677765 77.2021499,93.5681937 76.9150391,94.1538086 C76.6279283,94.7394235 76.3020852,95.2578102 75.9375,95.7089844 L77.9951172,97.7119141 Z M70.25,94.8134766 C70.25,95.2054056 70.3969712,95.517577 70.690918,95.75 C70.9848648,95.982423 71.3619769,96.0986328 71.8222656,96.0986328 C72.3964872,96.0986328 72.9137347,95.9596368 73.3740234,95.6816406 L71.1044922,93.4257812 C70.8401679,93.6263031 70.6316739,93.8359364 70.4790039,94.0546875 C70.3263339,94.2734386 70.25,94.5263658 70.25,94.8134766 L70.25,94.8134766 Z M72.7041016,89.9667969 C72.7041016,89.7252592 72.6220711,89.5349942 72.4580078,89.3959961 C72.2939445,89.256998 72.0820325,89.1875 71.8222656,89.1875 C71.5169256,89.1875 71.2765308,89.2604159 71.1010742,89.40625 C70.9256176,89.5520841 70.8378906,89.7594388 70.8378906,90.0283203 C70.8378906,90.429364 71.0543598,90.8714169 71.4873047,91.3544922 C71.8792337,91.1357411 72.180012,90.9204112 72.3896484,90.7084961 C72.5992849,90.496581 72.7041016,90.2493504 72.7041016,89.9667969 L72.7041016,89.9667969 Z M87.1347656,89.3378906 C86.3372356,89.3378906 85.7197288,89.6375296 85.2822266,90.2368164 C84.8447244,90.8361033 84.6259766,91.6712186 84.6259766,92.7421875 C84.6259766,94.9707143 85.4622312,96.0849609 87.1347656,96.0849609 C87.8365921,96.0849609 88.6865184,95.909507 89.6845703,95.5585938 L89.6845703,97.3359375 C88.8642537,97.6777361 87.9482472,97.8486328 86.9365234,97.8486328 C85.4827401,97.8486328 84.3707721,97.4077193 83.6005859,96.5258789 C82.8303998,95.6440386 82.4453125,94.3782635 82.4453125,92.7285156 C82.4453125,91.6894479 82.6344382,90.779138 83.0126953,89.9975586 C83.3909524,89.2159792 83.934404,88.6167013 84.6430664,88.199707 C85.3517288,87.7827128 86.1822869,87.5742188 87.1347656,87.5742188 C88.1054736,87.5742188 89.0807243,87.8089169 90.0605469,88.2783203 L89.3769531,90.0009766 C89.0032533,89.8232413 88.6272805,89.6682949 88.2490234,89.5361328 C87.8707663,89.4039707 87.4993508,89.3378906 87.1347656,89.3378906 L87.1347656,89.3378906 Z M93.3076172,93.8769531 C93.3076172,94.6334673 93.4318021,95.2054017 93.6801758,95.5927734 C93.9285494,95.9801452 94.333005,96.1738281 94.8935547,96.1738281 C95.4495471,96.1738281 95.8494454,95.9812845 96.0932617,95.5961914 C96.337078,95.2110983 96.4589844,94.6380246 96.4589844,93.8769531 C96.4589844,93.1204389 96.3359387,92.5530618 96.0898438,92.1748047 C95.8437488,91.7965476 95.4404325,91.6074219 94.8798828,91.6074219 C94.3238904,91.6074219 93.9228528,91.7954083 93.6767578,92.1713867 C93.4306628,92.5473652 93.3076172,93.1158816 93.3076172,93.8769531 L93.3076172,93.8769531 Z M98.5917969,93.8769531 C98.5917969,95.1211 98.2636752,96.094072 97.6074219,96.7958984 C96.9511686,97.4977249 96.0374408,97.8486328 94.8662109,97.8486328 C94.1324833,97.8486328 93.4853544,97.6879899 92.9248047,97.3666992 C92.364255,97.0454085 91.9335953,96.5839874 91.6328125,95.9824219 C91.3320297,95.3808564 91.1816406,94.6790405 91.1816406,93.8769531 C91.1816406,92.628249 91.5074837,91.6575555 92.1591797,90.9648438 C92.8108757,90.272132 93.7268821,89.9257812 94.9072266,89.9257812 C95.6409542,89.9257812 96.2880831,90.0852849 96.8486328,90.4042969 C97.4091825,90.7233089 97.8398422,91.1813121 98.140625,91.7783203 C98.4414078,92.3753285 98.5917969,93.0748658 98.5917969,93.8769531 L98.5917969,93.8769531 Z M107.157227,97.7119141 L105.072266,97.7119141 L105.072266,93.2480469 C105.072266,92.6966118 104.979981,92.2830417 104.79541,92.0073242 C104.610839,91.7316067 104.320314,91.59375 103.923828,91.59375 C103.390622,91.59375 103.003256,91.7897116 102.761719,92.1816406 C102.520181,92.5735697 102.399414,93.21842 102.399414,94.1162109 L102.399414,97.7119141 L100.314453,97.7119141 L100.314453,90.0693359 L101.907227,90.0693359 L102.1875,91.046875 L102.303711,91.046875 C102.50879,90.6959618 102.805011,90.4213877 103.192383,90.2231445 C103.579755,90.0249014 104.024086,89.9257812 104.525391,89.9257812 C105.669277,89.9257812 106.444008,90.2994754 106.849609,91.046875 L107.03418,91.046875 C107.239259,90.6914045 107.541176,90.4156911 107.939941,90.2197266 C108.338706,90.023762 108.788734,89.9257812 109.290039,89.9257812 C110.155929,89.9257812 110.811033,90.147947 111.255371,90.5922852 C111.699709,91.0366233 111.921875,91.748693 111.921875,92.7285156 L111.921875,97.7119141 L109.830078,97.7119141 L109.830078,93.2480469 C109.830078,92.6966118 109.737794,92.2830417 109.553223,92.0073242 C109.368651,91.7316067 109.078127,91.59375 108.681641,91.59375 C108.171221,91.59375 107.789552,91.7760398 107.536621,92.140625 C107.28369,92.5052102 107.157227,93.0839804 107.157227,93.8769531 L107.157227,97.7119141 Z M118.258789,97.8486328 C117.360998,97.8486328 116.656904,97.5227897 116.146484,96.8710938 L116.037109,96.8710938 C116.110026,97.5091178 116.146484,97.8782547 116.146484,97.9785156 L116.146484,101.075195 L114.061523,101.075195 L114.061523,90.0693359 L115.756836,90.0693359 L116.050781,91.0605469 L116.146484,91.0605469 C116.634117,90.3040327 117.356441,89.9257812 118.313477,89.9257812 C119.215825,89.9257812 119.922198,90.2744106 120.432617,90.9716797 C120.943036,91.6689488 121.198242,92.6373636 121.198242,93.8769531 C121.198242,94.6927124 121.078614,95.4013642 120.839355,96.0029297 C120.600096,96.6044952 120.259442,97.0624984 119.817383,97.3769531 C119.375323,97.6914078 118.855797,97.8486328 118.258789,97.8486328 L118.258789,97.8486328 Z M117.643555,91.59375 C117.128578,91.59375 116.752605,91.7521143 116.515625,92.0688477 C116.278645,92.385581 116.155599,92.908525 116.146484,93.6376953 L116.146484,93.8632812 C116.146484,94.6835979 116.268391,95.2714826 116.512207,95.6269531 C116.756023,95.9824237 117.14225,96.1601562 117.670898,96.1601562 C118.605148,96.1601562 119.072266,95.3899817 119.072266,93.8496094 C119.072266,93.0976525 118.957195,92.5336933 118.727051,92.1577148 C118.496906,91.7817364 118.135745,91.59375 117.643555,91.59375 L117.643555,91.59375 Z M125.005859,97.7119141 L122.920898,97.7119141 L122.920898,87.0751953 L125.005859,87.0751953 L125.005859,97.7119141 Z M127.104492,88.09375 C127.104492,87.4147101 127.482744,87.0751953 128.239258,87.0751953 C128.995772,87.0751953 129.374023,87.4147101 129.374023,88.09375 C129.374023,88.4173193 129.279461,88.6691072 129.090332,88.8491211 C128.901203,89.029135 128.617515,89.1191406 128.239258,89.1191406 C127.482744,89.1191406 127.104492,88.7773472 127.104492,88.09375 L127.104492,88.09375 Z M129.27832,97.7119141 L127.193359,97.7119141 L127.193359,90.0693359 L129.27832,90.0693359 L129.27832,97.7119141 Z M136.319336,97.7119141 L135.916016,96.6728516 L135.861328,96.6728516 C135.510415,97.1149111 135.149253,97.4213859 134.777832,97.5922852 C134.406411,97.7631844 133.922204,97.8486328 133.325195,97.8486328 C132.591468,97.8486328 132.013837,97.6389995 131.592285,97.2197266 C131.170734,96.8004536 130.959961,96.2034544 130.959961,95.4287109 C130.959961,94.617509 131.24365,94.0193704 131.811035,93.6342773 C132.378421,93.2491843 133.234044,93.036133 134.37793,92.9951172 L135.704102,92.9541016 L135.704102,92.6191406 C135.704102,91.8443972 135.307621,91.4570312 134.514648,91.4570312 C133.903968,91.4570312 133.186202,91.6415997 132.361328,92.0107422 L131.670898,90.6025391 C132.55046,90.1422503 133.525711,89.9121094 134.59668,89.9121094 C135.622075,89.9121094 136.4082,90.1354144 136.955078,90.5820312 C137.501956,91.0286481 137.775391,91.7076777 137.775391,92.6191406 L137.775391,97.7119141 L136.319336,97.7119141 Z M135.704102,94.1708984 L134.897461,94.1982422 C134.291338,94.2164714 133.840171,94.3258454 133.543945,94.5263672 C133.24772,94.726889 133.099609,95.0322245 133.099609,95.4423828 C133.099609,96.0302764 133.436846,96.3242188 134.111328,96.3242188 C134.594403,96.3242188 134.98063,96.1852227 135.27002,95.9072266 C135.559409,95.6292304 135.704102,95.2600934 135.704102,94.7998047 L135.704102,94.1708984 Z M146.976562,97.7119141 L144.891602,97.7119141 L144.891602,93.2480469 C144.891602,92.6966118 144.793621,92.2830417 144.597656,92.0073242 C144.401692,91.7316067 144.08952,91.59375 143.661133,91.59375 C143.077797,91.59375 142.656251,91.7885723 142.396484,92.1782227 C142.136717,92.567873 142.006836,93.2138627 142.006836,94.1162109 L142.006836,97.7119141 L139.921875,97.7119141 L139.921875,90.0693359 L141.514648,90.0693359 L141.794922,91.046875 L141.911133,91.046875 C142.143556,90.6777325 142.463702,90.3986012 142.871582,90.2094727 C143.279462,90.0203441 143.743161,89.9257812 144.262695,89.9257812 C145.151372,89.9257812 145.825844,90.166176 146.286133,90.6469727 C146.746422,91.1277693 146.976562,91.82161 146.976562,92.7285156 L146.976562,97.7119141 Z M152.226562,97.8486328 C149.847644,97.8486328 148.658203,96.5429818 148.658203,93.9316406 C148.658203,92.632806 148.981768,91.6404657 149.628906,90.9545898 C150.276045,90.268714 151.203444,89.9257812 152.411133,89.9257812 C153.295252,89.9257812 154.088213,90.0989566 154.790039,90.4453125 L154.174805,92.0585938 C153.846678,91.9264316 153.541343,91.818197 153.258789,91.7338867 C152.976236,91.6495764 152.693686,91.6074219 152.411133,91.6074219 C151.326492,91.6074219 150.78418,92.3775965 150.78418,93.9179688 C150.78418,95.4127679 151.326492,96.1601562 152.411133,96.1601562 C152.812176,96.1601562 153.183592,96.1066086 153.525391,95.9995117 C153.867189,95.8924148 154.208983,95.724936 154.550781,95.4970703 L154.550781,97.28125 C154.21354,97.4954438 153.872886,97.6435543 153.528809,97.7255859 C153.184731,97.8076176 152.750654,97.8486328 152.226562,97.8486328 L152.226562,97.8486328 Z M159.486328,91.4091797 C159.044269,91.4091797 158.697918,91.549315 158.447266,91.8295898 C158.196613,92.1098647 158.05306,92.5074844 158.016602,93.0224609 L160.942383,93.0224609 C160.933268,92.5074844 160.798829,92.1098647 160.539062,91.8295898 C160.279296,91.549315 159.928388,91.4091797 159.486328,91.4091797 L159.486328,91.4091797 Z M159.780273,97.8486328 C158.549799,97.8486328 157.58822,97.509118 156.895508,96.8300781 C156.202796,96.1510383 155.856445,95.1894593 155.856445,93.9453125 C155.856445,92.6647071 156.176592,91.6746454 156.816895,90.9750977 C157.457197,90.2755499 158.342442,89.9257812 159.472656,89.9257812 C160.55274,89.9257812 161.393552,90.2333954 161.995117,90.8486328 C162.596683,91.4638703 162.897461,92.3137967 162.897461,93.3984375 L162.897461,94.4101562 L157.96875,94.4101562 C157.991537,95.0026071 158.166991,95.4651676 158.495117,95.7978516 C158.823244,96.1305355 159.283526,96.296875 159.875977,96.296875 C160.336265,96.296875 160.771482,96.2490239 161.181641,96.1533203 C161.591799,96.0576167 162.02018,95.904949 162.466797,95.6953125 L162.466797,97.3085938 C162.102212,97.4908863 161.712567,97.6264644 161.297852,97.715332 C160.883136,97.8041997 160.377282,97.8486328 159.780273,97.8486328 L159.780273,97.8486328 Z M174.292969,94.9365234 C174.292969,95.8388717 173.968265,96.5498021 173.318848,97.0693359 C172.66943,97.5888698 171.765956,97.8486328 170.608398,97.8486328 C169.541987,97.8486328 168.598637,97.648114 167.77832,97.2470703 L167.77832,95.2783203 C168.452803,95.5791031 169.023598,95.791015 169.490723,95.9140625 C169.957847,96.03711 170.385089,96.0986328 170.772461,96.0986328 C171.237307,96.0986328 171.593912,96.0097665 171.842285,95.8320312 C172.090659,95.654296 172.214844,95.3899757 172.214844,95.0390625 C172.214844,94.843098 172.160157,94.6687833 172.050781,94.5161133 C171.941406,94.3634432 171.780763,94.2164721 171.568848,94.0751953 C171.356933,93.9339186 170.925133,93.7083349 170.273438,93.3984375 C169.662757,93.1113267 169.204754,92.8356133 168.899414,92.5712891 C168.594074,92.3069648 168.350261,91.9993507 168.167969,91.6484375 C167.985676,91.2975243 167.894531,90.8873721 167.894531,90.4179688 C167.894531,89.5338497 168.19417,88.8388697 168.793457,88.3330078 C169.392744,87.8271459 170.221023,87.5742188 171.27832,87.5742188 C171.797854,87.5742188 172.293455,87.6357416 172.765137,87.7587891 C173.236819,87.8818366 173.730141,88.0550119 174.245117,88.2783203 L173.561523,89.9257812 C173.028318,89.7070302 172.587404,89.5543624 172.23877,89.4677734 C171.890135,89.3811845 171.547202,89.3378906 171.209961,89.3378906 C170.808917,89.3378906 170.501303,89.4313142 170.287109,89.6181641 C170.072916,89.805014 169.96582,90.0488266 169.96582,90.3496094 C169.96582,90.5364593 170.009114,90.6993808 170.095703,90.8383789 C170.182292,90.977377 170.320149,91.1118158 170.509277,91.2416992 C170.698406,91.3715827 171.146155,91.6051415 171.852539,91.9423828 C172.786789,92.3889996 173.427082,92.8367491 173.773438,93.2856445 C174.119793,93.73454 174.292969,94.2848275 174.292969,94.9365234 L174.292969,94.9365234 Z M177.601562,93.8769531 C177.601562,94.6334673 177.725747,95.2054017 177.974121,95.5927734 C178.222495,95.9801452 178.62695,96.1738281 179.1875,96.1738281 C179.743492,96.1738281 180.143391,95.9812845 180.387207,95.5961914 C180.631023,95.2110983 180.75293,94.6380246 180.75293,93.8769531 C180.75293,93.1204389 180.629884,92.5530618 180.383789,92.1748047 C180.137694,91.7965476 179.734378,91.6074219 179.173828,91.6074219 C178.617836,91.6074219 178.216798,91.7954083 177.970703,92.1713867 C177.724608,92.5473652 177.601562,93.1158816 177.601562,93.8769531 L177.601562,93.8769531 Z M182.885742,93.8769531 C182.885742,95.1211 182.55762,96.094072 181.901367,96.7958984 C181.245114,97.4977249 180.331386,97.8486328 179.160156,97.8486328 C178.426429,97.8486328 177.7793,97.6879899 177.21875,97.3666992 C176.6582,97.0454085 176.227541,96.5839874 175.926758,95.9824219 C175.625975,95.3808564 175.475586,94.6790405 175.475586,93.8769531 C175.475586,92.628249 175.801429,91.6575555 176.453125,90.9648438 C177.104821,90.272132 178.020827,89.9257812 179.201172,89.9257812 C179.9349,89.9257812 180.582028,90.0852849 181.142578,90.4042969 C181.703128,90.7233089 182.133788,91.1813121 182.43457,91.7783203 C182.735353,92.3753285 182.885742,93.0748658 182.885742,93.8769531 L182.885742,93.8769531 Z M188.833008,91.6347656 L187.02832,91.6347656 L187.02832,97.7119141 L184.943359,97.7119141 L184.943359,91.6347656 L183.794922,91.6347656 L183.794922,90.6298828 L184.943359,90.0693359 L184.943359,89.5087891 C184.943359,88.638342 185.15755,88.0026062 185.585938,87.6015625 C186.014325,87.2005188 186.700191,87 187.643555,87 C188.36361,87 189.003903,87.1070953 189.564453,87.3212891 L189.03125,88.8525391 C188.611977,88.7203769 188.224611,88.6542969 187.869141,88.6542969 C187.572915,88.6542969 187.358725,88.7420239 187.226562,88.9174805 C187.0944,89.0929371 187.02832,89.3173814 187.02832,89.5908203 L187.02832,90.0693359 L188.833008,90.0693359 L188.833008,91.6347656 Z M193.249023,96.1875 C193.613609,96.1875 194.051104,96.1077482 194.561523,95.9482422 L194.561523,97.5 C194.04199,97.732423 193.403975,97.8486328 192.647461,97.8486328 C191.813472,97.8486328 191.206219,97.6378602 190.825684,97.2163086 C190.445148,96.794757 190.254883,96.1624391 190.254883,95.3193359 L190.254883,91.6347656 L189.256836,91.6347656 L189.256836,90.7529297 L190.405273,90.0556641 L191.006836,88.4423828 L192.339844,88.4423828 L192.339844,90.0693359 L194.479492,90.0693359 L194.479492,91.6347656 L192.339844,91.6347656 L192.339844,95.3193359 C192.339844,95.6155614 192.423013,95.8343092 192.589355,95.9755859 C192.755697,96.1168627 192.975585,96.1875 193.249023,96.1875 L193.249023,96.1875 Z M202.388672,97.7119141 L201.800781,95.0390625 L201.007812,91.6621094 L200.959961,91.6621094 L199.56543,97.7119141 L197.323242,97.7119141 L195.149414,90.0693359 L197.227539,90.0693359 L198.109375,93.453125 C198.250652,94.0592478 198.394205,94.8955025 198.540039,95.9619141 L198.581055,95.9619141 C198.599284,95.6155582 198.679036,95.06641 198.820312,94.3144531 L198.929688,93.7333984 L199.873047,90.0693359 L202.169922,90.0693359 L203.06543,93.7333984 C203.083659,93.8336594 203.112142,93.9817699 203.150879,94.1777344 C203.189616,94.3736989 203.227213,94.5821929 203.263672,94.8032227 C203.30013,95.0242524 203.33317,95.2407216 203.362793,95.4526367 C203.392416,95.6645518 203.409505,95.8343093 203.414062,95.9619141 L203.455078,95.9619141 C203.496094,95.6337874 203.56901,95.1837594 203.673828,94.6118164 C203.778646,94.0398734 203.853841,93.6536468 203.899414,93.453125 L204.81543,90.0693359 L206.859375,90.0693359 L204.658203,97.7119141 L202.388672,97.7119141 Z M212.943359,97.7119141 L212.540039,96.6728516 L212.485352,96.6728516 C212.134438,97.1149111 211.773277,97.4213859 211.401855,97.5922852 C211.030434,97.7631844 210.546227,97.8486328 209.949219,97.8486328 C209.215491,97.8486328 208.63786,97.6389995 208.216309,97.2197266 C207.794757,96.8004536 207.583984,96.2034544 207.583984,95.4287109 C207.583984,94.617509 207.867673,94.0193704 208.435059,93.6342773 C209.002444,93.2491843 209.858067,93.036133 211.001953,92.9951172 L212.328125,92.9541016 L212.328125,92.6191406 C212.328125,91.8443972 211.931645,91.4570312 211.138672,91.4570312 C210.527992,91.4570312 209.810225,91.6415997 208.985352,92.0107422 L208.294922,90.6025391 C209.174484,90.1422503 210.149734,89.9121094 211.220703,89.9121094 C212.246099,89.9121094 213.032224,90.1354144 213.579102,90.5820312 C214.125979,91.0286481 214.399414,91.7076777 214.399414,92.6191406 L214.399414,97.7119141 L212.943359,97.7119141 Z M212.328125,94.1708984 L211.521484,94.1982422 C210.915362,94.2164714 210.464194,94.3258454 210.167969,94.5263672 C209.871743,94.726889 209.723633,95.0322245 209.723633,95.4423828 C209.723633,96.0302764 210.060869,96.3242188 210.735352,96.3242188 C211.218427,96.3242188 211.604654,96.1852227 211.894043,95.9072266 C212.183432,95.6292304 212.328125,95.2600934 212.328125,94.7998047 L212.328125,94.1708984 Z M220.811523,89.9257812 C221.094077,89.9257812 221.328775,89.9462889 221.515625,89.9873047 L221.358398,91.9423828 C221.189778,91.8968097 220.984702,91.8740234 220.743164,91.8740234 C220.077796,91.8740234 219.559409,92.0449202 219.187988,92.3867188 C218.816567,92.7285173 218.630859,93.2070282 218.630859,93.8222656 L218.630859,97.7119141 L216.545898,97.7119141 L216.545898,90.0693359 L218.125,90.0693359 L218.432617,91.3544922 L218.535156,91.3544922 C218.772137,90.9261046 219.092283,90.5808932 219.495605,90.3188477 C219.898928,90.0568021 220.337563,89.9257812 220.811523,89.9257812 L220.811523,89.9257812 Z M225.788086,91.4091797 C225.346026,91.4091797 224.999676,91.549315 224.749023,91.8295898 C224.498371,92.1098647 224.354818,92.5074844 224.318359,93.0224609 L227.244141,93.0224609 C227.235026,92.5074844 227.100587,92.1098647 226.84082,91.8295898 C226.581053,91.549315 226.230145,91.4091797 225.788086,91.4091797 L225.788086,91.4091797 Z M226.082031,97.8486328 C224.851556,97.8486328 223.889977,97.509118 223.197266,96.8300781 C222.504554,96.1510383 222.158203,95.1894593 222.158203,93.9453125 C222.158203,92.6647071 222.47835,91.6746454 223.118652,90.9750977 C223.758955,90.2755499 224.6442,89.9257812 225.774414,89.9257812 C226.854498,89.9257812 227.695309,90.2333954 228.296875,90.8486328 C228.898441,91.4638703 229.199219,92.3137967 229.199219,93.3984375 L229.199219,94.4101562 L224.270508,94.4101562 C224.293294,95.0026071 224.468748,95.4651676 224.796875,95.7978516 C225.125002,96.1305355 225.585283,96.296875 226.177734,96.296875 C226.638023,96.296875 227.07324,96.2490239 227.483398,96.1533203 C227.893557,96.0576167 228.321938,95.904949 228.768555,95.6953125 L228.768555,97.3085938 C228.40397,97.4908863 228.014325,97.6264644 227.599609,97.715332 C227.184894,97.8041997 226.679039,97.8486328 226.082031,97.8486328 L226.082031,97.8486328 Z" id="strap"></path>
                <path d="M25.334,37.842 C25.334,25.652 19.822,21.624 12.932,21.624 C9.116,21.624 5.194,23.108 3.498,24.592 L4.77,28.09 C6.784,26.606 9.434,25.652 11.978,25.652 C19.398,25.652 20.776,31.482 20.776,40.174 L20.776,42.082 C9.222,42.188 0,47.912 0,60.208 C0,68.9 4.982,74.2 11.236,74.2 C15.582,74.2 18.868,71.656 20.776,67.734 L21.094,67.734 L21.518,73.352 L25.758,73.352 C25.334,70.172 25.334,65.614 25.334,61.904 L25.334,37.842 Z M20.776,57.24 C20.776,58.194 20.776,59.36 20.564,60.526 C19.61,66.674 16.218,70.172 11.872,70.172 C8.48,70.172 4.77,67.522 4.77,59.89 C4.77,46.322 16.854,46.004 20.776,46.004 L20.776,57.24 Z M43,73.352 L43,22.472 L38.442,22.472 L38.442,73.352 L43,73.352 Z M40.668,13.356 C43,13.356 44.166,11.872 44.166,9.434 C44.166,7.102 43,5.512 40.668,5.512 C38.654,5.512 37.276,7.102 37.276,9.434 C37.276,11.872 38.654,13.356 40.562,13.356 L40.668,13.356 Z M56.002,73.352 L60.56,73.352 L60.56,43.672 C60.56,42.188 60.56,40.81 60.666,39.326 C61.09,33.072 64.906,26.606 71.478,26.606 L72.326,26.606 L72.326,21.624 L71.372,21.624 C66.072,21.624 61.62,26.288 60.348,30.74 L60.136,30.74 L59.924,22.472 L55.578,22.472 C55.684,25.652 56.002,30.422 56.002,34.238 L56.002,73.352 Z M76.2120001,71.02 C78.3320001,72.822 81.9360001,73.988 85.3280001,73.988 C92.3240001,73.988 99.0020001,69.536 99.0020001,59.466 C99.0020001,51.516 93.1720001,47.276 88.2960001,43.778 C83.1020001,39.962 81.7240001,37.63 81.7240001,33.496 C81.7240001,29.574 84.3740001,25.652 89.2500001,25.652 C91.9000001,25.652 93.9140001,26.606 95.8220001,28.09 L97.8360001,24.38 C96.1400001,23.108 93.3840001,21.624 89.5680001,21.624 C83.1020001,21.624 77.1660001,26.712 77.1660001,34.45 C77.1660001,41.022 81.8300001,44.838 87.4480001,48.866 C92.9600001,52.788 94.3380001,56.18 94.3380001,60.738 C94.3380001,66.356 90.8400001,69.96 85.5400001,69.96 C82.3600001,69.96 79.6040001,68.476 77.9080001,67.31 L76.2120001,71.02 Z M104.584,22.472 L116.986,73.352 L120.802,73.352 L127.904,44.732 C129.07,39.856 130.024,35.51 130.978,29.362 L131.19,29.362 C132.144,35.192 132.78,39.114 134.158,44.308 L141.366,73.352 L144.864,73.352 L157.478,22.472 L152.814,22.472 L146.878,48.972 C145.5,55.014 144.228,60.208 143.486,65.932 L143.062,65.932 C142.002,59.784 140.73,54.166 139.352,48.548 L132.992,22.472 L129.388,22.472 L122.71,49.396 C121.438,54.272 120.06,60.42 119.212,65.932 L118.788,65.932 C118.046,60.42 116.668,54.59 115.396,49.184 L109.142,22.472 L104.584,22.472 Z M190.408,46.004 L190.408,43.036 C190.408,34.026 187.652,21.624 177.582,21.624 C168.254,21.624 162.424,32.012 162.424,48.124 C162.424,63.494 167.936,73.988 179.066,73.988 C182.458,73.988 186.168,73.14 188.606,71.444 L187.546,67.946 C185.85,69.112 183.2,69.96 179.914,69.96 C174.19,69.96 167.088,66.462 167.088,46.004 L190.408,46.004 Z M167.194,42.294 C167.724,34.132 170.904,25.652 176.84,25.652 C180.55,25.652 185.744,29.786 185.532,42.294 L167.194,42.294 Z M200.23,62.964 C200.23,65.508 199.912,71.444 199.806,73.352 L203.728,73.352 L204.152,66.25 L204.576,66.25 C206.06,70.172 208.604,74.2 214.752,74.2 C221.536,74.2 229.486,66.674 229.486,47.912 C229.486,29.362 222.596,21.624 215.812,21.624 C211.89,21.624 207.756,23.002 205,28.938 L204.788,28.938 L204.788,0 L200.23,0 L200.23,62.964 Z M204.788,41.234 C204.788,39.962 204.788,38.796 204.894,37.524 C205.53,31.906 209.452,25.652 214.222,25.652 C222.066,25.652 224.716,36.782 224.716,47.912 C224.716,59.36 222.172,70.172 214.434,70.172 C211.784,70.172 207.332,68.582 205,58.618 C204.788,57.664 204.788,56.604 204.788,55.544 L204.788,41.234 Z" id="airsweb"></path>
            </g>
            <g id="globe" filter="url(#filter-1)">
                <mask id="mask-3" fill="white">
                    <use xlink:href="#path-2"></use>
                </mask>
                <use id="green" fill="#5BAE4F" xlink:href="#path-2"></use>
                <path d="M103.888889,62.6388889 L61.1111111,62.6388889 L47.3611111,47.3611111 L10.6944444,47.3611111 L0,55 C0,85.3756612 24.6243388,110 55,110 C85.3756612,110 110,85.3756612 110,55 L103.888889,62.6388889 Z" id="blue" fill="#4274AD" mask="url(#mask-3)"></path>
                <g id="aw" filter="url(#filter-4)" mask="url(#mask-3)" fill="#FFFFFF" fill-rule="nonzero">
                    <g transform="translate(0.000000, 44.000000)">
                        <path d="M38.2458934,15.5833333 L10.7458934,15.5833333 C10.7566391,15.5833333 10.717048,15.5820136 10.6353592,15.5761787 C10.4664714,15.5641153 10.2700698,15.5414536 10.0546472,15.5055498 C9.44079986,15.4032419 8.8320681,15.2206224 8.29293493,14.9510558 C6.90671697,14.2579468 6.16256005,13.1417114 6.16256005,11 C6.16256005,8.85828855 6.90671697,7.74205317 8.29293493,7.04894419 C8.8320681,6.77937761 9.44079986,6.59675808 10.0546472,6.49445018 C10.2700698,6.45854642 10.4664714,6.43588471 10.6353592,6.42382129 C10.717048,6.41798637 10.7566391,6.41666667 10.7458934,6.41666667 C11.1907772,6.41666667 11.1907772,6.41666667 13.1398269,6.41666667 C15.7032751,6.41666667 15.7032751,6.41666667 19.220151,6.41666667 C24.015717,6.41666667 24.015717,6.41666667 29.325186,6.41666667 C35.2955028,6.41666667 35.2955028,6.41666667 40.5351517,6.41666667 C45.0441328,6.41666667 45.0441328,6.41666667 47.3611104,6.41666667 C48.1660163,6.41666667 48.4228767,6.58790692 48.6385551,7.01926376 C48.8179845,7.37812271 48.8888882,7.80354438 48.8888882,7.94444444 L48.8888889,18.6388891 C48.888889,20.3264258 50.2569079,21.6944446 51.9444447,21.6944444 C53.6319814,21.6944443 55.0000001,20.3264254 55,18.6388887 L54.9999993,7.94444424 C54.9999993,7.64261317 54.9703102,7.22696617 54.8868106,6.72596837 C54.7504032,5.90752408 54.5033352,5.08396418 54.104499,4.28629179 C52.8878858,1.8530653 50.5666212,0.305555553 47.3611104,0.305555556 C45.0441328,0.305555557 45.0441328,0.305555557 40.5351517,0.305555557 C35.2955028,0.305555557 35.2955028,0.305555557 29.325186,0.305555557 C24.015717,0.305555557 24.015717,0.305555557 19.220151,0.305555556 C15.7032751,0.305555556 15.7032751,0.305555556 13.1398269,0.305555556 C11.1907772,0.305555556 11.1907772,0.305555556 10.7458934,0.305555556 C10.348576,0.305555556 9.76582831,0.347180391 9.04998676,0.466487316 C7.87346955,0.662573518 6.69183673,1.01706336 5.55996295,1.58300025 C2.17187536,3.27704405 0.0514489412,6.45768367 0.0514489412,11 C0.0514489412,15.5423163 2.17187536,18.722956 5.55996295,20.4169998 C6.69183673,20.9829366 7.87346955,21.3374265 9.04998676,21.5335127 C9.76582831,21.6528196 10.348576,21.6944444 10.7458934,21.6944444 L38.2458934,21.6944444 C39.9334301,21.6944444 41.3014489,20.3264256 41.3014489,18.6388889 C41.3014489,16.9513522 39.9334301,15.5833333 38.2458934,15.5833333 L38.2458934,15.5833333 Z" id="a"></path>
                        <path d="M55,3.36111111 L55,14.0555556 C55,14.3573869 55.0296891,14.7730339 55.1131887,15.2740317 C55.2495961,16.092476 55.4966641,16.9160359 55.8955003,17.7137082 C57.1121136,20.1469347 59.4333782,21.6944444 62.6388889,21.6944444 L102.361111,21.6944444 C105.566622,21.6944444 107.887887,20.1469347 109.1045,17.7137082 C109.503336,16.9160358 109.750404,16.0924759 109.886811,15.2740316 C109.970311,14.7730338 110,14.3573868 110,14.0555556 L110,3.36111111 C110,1.67357438 108.631981,0.305555556 106.944444,0.305555556 C105.256908,0.305555556 103.888889,1.67357438 103.888889,3.36111111 L103.888889,14.0555556 C103.888889,14.1964556 103.817985,14.6218773 103.638556,14.9807362 C103.422877,15.4120931 103.166017,15.5833333 102.361111,15.5833333 L62.6388889,15.5833333 C61.8339831,15.5833333 61.5771227,15.4120931 61.3614442,14.9807362 C61.1820147,14.6218772 61.1111111,14.1964555 61.1111111,14.0555555 L61.1111111,3.36111111 C61.1111111,1.67357438 59.7430923,0.305555556 58.0555556,0.305555556 C56.3680188,0.305555556 55,1.67357438 55,3.36111111 L55,3.36111111 Z" id="w_base"></path>
                        <path d="M85.5555556,17.1111111 L85.5555556,6.41666667 C85.5555556,4.72912993 84.1875367,3.36111111 82.5,3.36111111 C80.8124633,3.36111111 79.4444444,4.72912993 79.4444444,6.41666667 L79.4444444,17.1111111 C79.4444444,18.7986478 80.8124633,20.1666667 82.5,20.1666667 C84.1875367,20.1666667 85.5555556,18.7986478 85.5555556,17.1111111 L85.5555556,17.1111111 Z" id="w_vertical"></path>
                    </g>
                </g>
            </g>
        </g>
    </g>
</svg>