<?xml version="1.0" encoding="UTF-8" standalone="no"?>
<svg width="104px" height="101px" viewBox="0 0 104 101" version="1.1" xmlns="http://www.w3.org/2000/svg" xmlns:xlink="http://www.w3.org/1999/xlink">
    <!-- Generator: sketchtool 39.1 (31720) - http://www.bohemiancoding.com/sketch -->
    <title>95CE3B8A-CD3A-45BB-901C-FD868059D57D</title>
    <desc>Created with sketchtool.</desc>
    <defs>
        <linearGradient x1="50%" y1="0%" x2="50%" y2="100%" id="linearGradient-1">
            <stop stop-color="#6EC462" offset="0%"></stop>
            <stop stop-color="#5BAE4F" offset="100%"></stop>
        </linearGradient>
        <path d="M37,73 C14.9104478,50.8782726 0,36.1657773 0,23.2984169 C0,10.4310566 10.3534152,0 23.125,0 C28.3309274,0 33.13507,1.73314511 37,4.65797707 C40.86493,1.73314511 45.6690726,0 50.875,0 C63.6465848,0 74,10.4310566 74,23.2984169 C74,36.1657773 59.0895522,50.8782726 37,73 Z" id="path-2"></path>
        <filter x="-50%" y="-50%" width="200%" height="200%" filterUnits="objectBoundingBox" id="filter-3">
            <feOffset dx="0" dy="8" in="SourceAlpha" result="shadowOffsetOuter1"></feOffset>
            <feGaussianBlur stdDeviation="7.5" in="shadowOffsetOuter1" result="shadowBlurOuter1"></feGaussianBlur>
            <feComposite in="shadowBlurOuter1" in2="SourceAlpha" operator="out" result="shadowBlurOuter1"></feComposite>
            <feColorMatrix values="0 0 0 0 0.874509804   0 0 0 0 0.905882353   0 0 0 0 0.941176471  0 0 0 1 0" type="matrix" in="shadowBlurOuter1"></feColorMatrix>
        </filter>
        <mask id="mask-4" maskContentUnits="userSpaceOnUse" maskUnits="objectBoundingBox" x="0" y="0" width="74" height="73" fill="white">
            <use xlink:href="#path-2"></use>
        </mask>
    </defs>
    <g id="HUB" stroke="none" stroke-width="1" fill="none" fill-rule="evenodd">
        <g id="HUB:-Home" transform="translate(-428.000000, -466.000000)">
            <g id="proactive_icon" transform="translate(443.000000, 473.000000)">
                <g id="Mask">
                    <use fill="black" fill-opacity="1" filter="url(#filter-3)" xlink:href="#path-2"></use>
                    <use stroke="url(#linearGradient-1)" mask="url(#mask-4)" stroke-width="13.2000003" fill="#FFFFFF" fill-rule="evenodd" xlink:href="#path-2"></use>
                </g>
                <path d="M37.7000924,37.9178739 C37.4754826,37.9715678 37.2410617,38 37,38 C36.1715729,38 35.4215729,37.6642136 34.8786797,37.1213203 C34.3357864,36.5784271 34,35.8284271 34,35 C34,34.8679777 34.008528,34.7379473 34.0250633,34.6104295 C34.3137921,31.6336955 37,17 37,17 C37,17 38.9323161,27.5267077 39.6953423,32.5399421 C43.0284897,33.4036928 48,35 48,35 C48,35 40.4124852,37.4362827 37.7000924,37.9178739 Z" id="Combined-Shape" fill="#6C7A89"></path>
            </g>
        </g>
    </g>
</svg>